# xmcd
#
# Track frame offsets:
#	150
#	14895
#	28902
#	47094
#	58445
#	74417
#	94015
#	109960
#	122965
#	137892
#	152252
#	182957
#	210702
#	230007
#	245452
#
# Disc length: 3519 seconds
#
# Revision: 0
# Processed by: cddbd v1.4PL0 Copyright (c) Steve Scherf et al.
# Submitted via: EasyCDDAExtractor 4.6.9.1
#
DISCID=e80dbd0f
DTITLE=Bernie Marsden - Green And Blues
DYEAR=2001
DGENRE=Blues
TTITLE0=Hideaway
TTITLE1=Don't Want No Woman
TTITLE2=If You Be My Baby
TTITLE3=Little Girl
TTITLE4=Rollin' Man
TTITLE5=Merry Go Round
TTITLE6=Watchout
TTITLE7=Snowy Wood
TTITLE8=My Heart Beats Like A Hammer
TTITLE9=Shake Your Money Maker
TTITLE10=Love That Burns
TTITLE11=The Welfare (Turns It's Back On You)
TTITLE12=Steppin' In
TTITLE13=The Supernatural
TTITLE14=Man Of The World
EXTD=
EXTT0=
EXTT1=
EXTT2=
EXTT3=
EXTT4=
EXTT5=
EXTT6=
EXTT7=
EXTT8=
EXTT9=
EXTT10=
EXTT11=
EXTT12=
EXTT13=
EXTT14=
PLAYORDER=
